# xmcd
#
# Track frame offsets: 
#        150
#        12267
#        25335
#        36832
#        52125
#        66190
#        79592
#        90882
#        104017
#        119192
#
# Disc length: 1759 seconds
#
# Revision: 0
# Processed by: cddbd v1.4PL0 Copyright (c) Steve Scherf et al.
# Submitted via: ExactAudioCopy v0.90a11
#
DISCID=8306dd0a
DTITLE=Lorrie Morgan and George Morgan - Side By Side
DYEAR=1900
DGENRE=
TTITLE0=Candy Kisses
TTITLE1=Easy Love
TTITLE2=Room Full Of Roses
TTITLE3=Everything You Say
TTITLE4=Someday We'll Be Together
TTITLE5=Barbara
TTITLE6=Tell Me I'm Only Dreaming
TTITLE7=Almost
TTITLE8=Don't Go Changing
TTITLE9=I'm Completely Satisfied With You
EXTD=
EXTT0=
EXTT1=
EXTT2=
EXTT3=
EXTT4=
EXTT5=
EXTT6=
EXTT7=
EXTT8=
EXTT9=
PLAYORDER=
